<mxfile host="app.diagrams.net" modified="2022-12-28T02:02:11.545Z" agent="5.0 (Macintosh; Intel Mac OS X 10_15_7) AppleWebKit/537.36 (KHTML, like Gecko) Chrome/106.0.0.0 Safari/537.36" etag="pVMlAIwc9V2IkbRXTJsF" version="20.7.4" type="github" pages="6">
  <diagram id="EwLrrENzWlX4JvnY7oEo" name="stop">
    <mxGraphModel dx="1562" dy="808" grid="1" gridSize="10" guides="1" tooltips="1" connect="1" arrows="1" fold="1" page="1" pageScale="1" pageWidth="850" pageHeight="1100" math="0" shadow="0">
      <root>
        <mxCell id="0" />
        <mxCell id="1" parent="0" />
        <mxCell id="XSkK4LGwhn24icY75i5K-31" value="" style="endArrow=none;dashed=1;html=1;rounded=0;" parent="1" edge="1">
          <mxGeometry width="50" height="50" relative="1" as="geometry">
            <mxPoint x="20" y="530" as="sourcePoint" />
            <mxPoint x="720" y="530" as="targetPoint" />
          </mxGeometry>
        </mxCell>
        <mxCell id="XSkK4LGwhn24icY75i5K-4" value="stop foo" style="shape=hexagon;perimeter=hexagonPerimeter2;whiteSpace=wrap;html=1;fixedSize=1;" parent="1" vertex="1">
          <mxGeometry x="40" y="20" width="120" height="80" as="geometry" />
        </mxCell>
        <mxCell id="XSkK4LGwhn24icY75i5K-9" value="" style="edgeStyle=orthogonalEdgeStyle;rounded=0;orthogonalLoop=1;jettySize=auto;html=1;" parent="1" source="XSkK4LGwhn24icY75i5K-7" target="XSkK4LGwhn24icY75i5K-8" edge="1">
          <mxGeometry relative="1" as="geometry" />
        </mxCell>
        <mxCell id="XSkK4LGwhn24icY75i5K-7" value="on event" style="rounded=0;whiteSpace=wrap;html=1;" parent="1" vertex="1">
          <mxGeometry x="40" y="180" width="120" height="60" as="geometry" />
        </mxCell>
        <mxCell id="XSkK4LGwhn24icY75i5K-11" value="" style="edgeStyle=orthogonalEdgeStyle;rounded=0;orthogonalLoop=1;jettySize=auto;html=1;" parent="1" source="XSkK4LGwhn24icY75i5K-8" target="XSkK4LGwhn24icY75i5K-10" edge="1">
          <mxGeometry relative="1" as="geometry" />
        </mxCell>
        <mxCell id="XSkK4LGwhn24icY75i5K-13" value="" style="edgeStyle=orthogonalEdgeStyle;rounded=0;orthogonalLoop=1;jettySize=auto;html=1;" parent="1" source="XSkK4LGwhn24icY75i5K-8" target="XSkK4LGwhn24icY75i5K-12" edge="1">
          <mxGeometry relative="1" as="geometry" />
        </mxCell>
        <mxCell id="XSkK4LGwhn24icY75i5K-8" value="is in process group" style="rhombus;whiteSpace=wrap;html=1;rounded=0;" parent="1" vertex="1">
          <mxGeometry x="260" y="170" width="140" height="80" as="geometry" />
        </mxCell>
        <mxCell id="XSkK4LGwhn24icY75i5K-10" value="print&lt;br&gt;Error ( no such process)" style="whiteSpace=wrap;html=1;rounded=0;" parent="1" vertex="1">
          <mxGeometry x="490" y="180" width="120" height="60" as="geometry" />
        </mxCell>
        <mxCell id="XSkK4LGwhn24icY75i5K-15" value="" style="edgeStyle=orthogonalEdgeStyle;rounded=0;orthogonalLoop=1;jettySize=auto;html=1;" parent="1" source="XSkK4LGwhn24icY75i5K-12" target="XSkK4LGwhn24icY75i5K-14" edge="1">
          <mxGeometry relative="1" as="geometry" />
        </mxCell>
        <mxCell id="XSkK4LGwhn24icY75i5K-19" value="" style="edgeStyle=orthogonalEdgeStyle;rounded=0;orthogonalLoop=1;jettySize=auto;html=1;" parent="1" source="XSkK4LGwhn24icY75i5K-12" target="XSkK4LGwhn24icY75i5K-18" edge="1">
          <mxGeometry relative="1" as="geometry" />
        </mxCell>
        <mxCell id="XSkK4LGwhn24icY75i5K-12" value="is (starting | running | backoff) ?" style="rhombus;whiteSpace=wrap;html=1;rounded=0;" parent="1" vertex="1">
          <mxGeometry x="260" y="330" width="140" height="80" as="geometry" />
        </mxCell>
        <mxCell id="XSkK4LGwhn24icY75i5K-14" value="print&lt;br&gt;Error ( not running )" style="whiteSpace=wrap;html=1;rounded=0;" parent="1" vertex="1">
          <mxGeometry x="490" y="340" width="120" height="60" as="geometry" />
        </mxCell>
        <mxCell id="XSkK4LGwhn24icY75i5K-25" value="" style="edgeStyle=orthogonalEdgeStyle;rounded=0;orthogonalLoop=1;jettySize=auto;html=1;" parent="1" source="XSkK4LGwhn24icY75i5K-18" target="XSkK4LGwhn24icY75i5K-24" edge="1">
          <mxGeometry relative="1" as="geometry" />
        </mxCell>
        <mxCell id="XSkK4LGwhn24icY75i5K-18" value="stop process" style="whiteSpace=wrap;html=1;rounded=0;" parent="1" vertex="1">
          <mxGeometry x="270" y="500" width="120" height="60" as="geometry" />
        </mxCell>
        <mxCell id="XSkK4LGwhn24icY75i5K-27" value="" style="edgeStyle=orthogonalEdgeStyle;rounded=0;orthogonalLoop=1;jettySize=auto;html=1;" parent="1" source="XSkK4LGwhn24icY75i5K-24" target="XSkK4LGwhn24icY75i5K-26" edge="1">
          <mxGeometry relative="1" as="geometry" />
        </mxCell>
        <mxCell id="XSkK4LGwhn24icY75i5K-29" value="" style="edgeStyle=orthogonalEdgeStyle;rounded=0;orthogonalLoop=1;jettySize=auto;html=1;" parent="1" source="XSkK4LGwhn24icY75i5K-24" target="XSkK4LGwhn24icY75i5K-28" edge="1">
          <mxGeometry relative="1" as="geometry" />
        </mxCell>
        <mxCell id="XSkK4LGwhn24icY75i5K-24" value="send sig term and wait for stopwaitsecs" style="rhombus;whiteSpace=wrap;html=1;rounded=0;" parent="1" vertex="1">
          <mxGeometry x="260" y="640" width="140" height="80" as="geometry" />
        </mxCell>
        <mxCell id="XSkK4LGwhn24icY75i5K-30" style="edgeStyle=orthogonalEdgeStyle;rounded=0;orthogonalLoop=1;jettySize=auto;html=1;exitX=0.5;exitY=1;exitDx=0;exitDy=0;entryX=1;entryY=0.5;entryDx=0;entryDy=0;" parent="1" source="XSkK4LGwhn24icY75i5K-26" target="XSkK4LGwhn24icY75i5K-28" edge="1">
          <mxGeometry relative="1" as="geometry">
            <Array as="points">
              <mxPoint x="550" y="840" />
            </Array>
          </mxGeometry>
        </mxCell>
        <mxCell id="XSkK4LGwhn24icY75i5K-26" value="send sig kill" style="whiteSpace=wrap;html=1;rounded=0;" parent="1" vertex="1">
          <mxGeometry x="490" y="650" width="120" height="60" as="geometry" />
        </mxCell>
        <mxCell id="XSkK4LGwhn24icY75i5K-28" value="print&lt;br&gt;foo: stopped" style="whiteSpace=wrap;html=1;rounded=0;" parent="1" vertex="1">
          <mxGeometry x="270" y="810" width="120" height="60" as="geometry" />
        </mxCell>
        <mxCell id="XSkK4LGwhn24icY75i5K-32" value="Stopping" style="text;html=1;strokeColor=none;fillColor=none;align=center;verticalAlign=middle;whiteSpace=wrap;rounded=0;" parent="1" vertex="1">
          <mxGeometry x="190" y="540" width="60" height="30" as="geometry" />
        </mxCell>
        <mxCell id="XSkK4LGwhn24icY75i5K-33" value="Stopped" style="text;html=1;strokeColor=none;fillColor=none;align=center;verticalAlign=middle;whiteSpace=wrap;rounded=0;" parent="1" vertex="1">
          <mxGeometry x="190" y="825" width="60" height="30" as="geometry" />
        </mxCell>
        <mxCell id="XS3p0-FsqNUTn5sX_4Dd-1" value="N" style="text;html=1;strokeColor=none;fillColor=none;align=center;verticalAlign=middle;whiteSpace=wrap;rounded=0;" parent="1" vertex="1">
          <mxGeometry x="380" y="180" width="60" height="30" as="geometry" />
        </mxCell>
        <mxCell id="XS3p0-FsqNUTn5sX_4Dd-2" value="Y" style="text;html=1;strokeColor=none;fillColor=none;align=center;verticalAlign=middle;whiteSpace=wrap;rounded=0;" parent="1" vertex="1">
          <mxGeometry x="280" y="240" width="60" height="30" as="geometry" />
        </mxCell>
        <mxCell id="XS3p0-FsqNUTn5sX_4Dd-3" value="N" style="text;html=1;strokeColor=none;fillColor=none;align=center;verticalAlign=middle;whiteSpace=wrap;rounded=0;" parent="1" vertex="1">
          <mxGeometry x="380" y="340" width="60" height="30" as="geometry" />
        </mxCell>
        <mxCell id="XS3p0-FsqNUTn5sX_4Dd-4" value="Y" style="text;html=1;strokeColor=none;fillColor=none;align=center;verticalAlign=middle;whiteSpace=wrap;rounded=0;" parent="1" vertex="1">
          <mxGeometry x="280" y="400" width="60" height="30" as="geometry" />
        </mxCell>
        <mxCell id="XS3p0-FsqNUTn5sX_4Dd-5" value="Y" style="text;html=1;strokeColor=none;fillColor=none;align=center;verticalAlign=middle;whiteSpace=wrap;rounded=0;" parent="1" vertex="1">
          <mxGeometry x="270" y="700" width="60" height="30" as="geometry" />
        </mxCell>
        <mxCell id="XS3p0-FsqNUTn5sX_4Dd-6" value="N" style="text;html=1;strokeColor=none;fillColor=none;align=center;verticalAlign=middle;whiteSpace=wrap;rounded=0;" parent="1" vertex="1">
          <mxGeometry x="380" y="650" width="60" height="30" as="geometry" />
        </mxCell>
      </root>
    </mxGraphModel>
  </diagram>
  <diagram name="start" id="OIf6JbgN10xO4uKeOxsZ">
    <mxGraphModel dx="1562" dy="808" grid="1" gridSize="10" guides="1" tooltips="1" connect="1" arrows="1" fold="1" page="1" pageScale="1" pageWidth="850" pageHeight="1100" math="0" shadow="0">
      <root>
        <mxCell id="TLC2s6rqIA9neG3Z2rmB-0" />
        <mxCell id="TLC2s6rqIA9neG3Z2rmB-1" parent="TLC2s6rqIA9neG3Z2rmB-0" />
        <mxCell id="TLC2s6rqIA9neG3Z2rmB-2" value="" style="endArrow=none;dashed=1;html=1;rounded=0;" parent="TLC2s6rqIA9neG3Z2rmB-1" edge="1">
          <mxGeometry width="50" height="50" relative="1" as="geometry">
            <mxPoint x="20" y="530" as="sourcePoint" />
            <mxPoint x="780" y="530" as="targetPoint" />
          </mxGeometry>
        </mxCell>
        <mxCell id="TLC2s6rqIA9neG3Z2rmB-3" value="start foo" style="shape=hexagon;perimeter=hexagonPerimeter2;whiteSpace=wrap;html=1;fixedSize=1;" parent="TLC2s6rqIA9neG3Z2rmB-1" vertex="1">
          <mxGeometry x="40" y="20" width="120" height="80" as="geometry" />
        </mxCell>
        <mxCell id="TLC2s6rqIA9neG3Z2rmB-4" value="" style="edgeStyle=orthogonalEdgeStyle;rounded=0;orthogonalLoop=1;jettySize=auto;html=1;" parent="TLC2s6rqIA9neG3Z2rmB-1" source="TLC2s6rqIA9neG3Z2rmB-5" target="TLC2s6rqIA9neG3Z2rmB-8" edge="1">
          <mxGeometry relative="1" as="geometry" />
        </mxCell>
        <mxCell id="TLC2s6rqIA9neG3Z2rmB-5" value="on event" style="rounded=0;whiteSpace=wrap;html=1;" parent="TLC2s6rqIA9neG3Z2rmB-1" vertex="1">
          <mxGeometry x="40" y="180" width="120" height="60" as="geometry" />
        </mxCell>
        <mxCell id="TLC2s6rqIA9neG3Z2rmB-6" value="" style="edgeStyle=orthogonalEdgeStyle;rounded=0;orthogonalLoop=1;jettySize=auto;html=1;" parent="TLC2s6rqIA9neG3Z2rmB-1" source="TLC2s6rqIA9neG3Z2rmB-8" target="TLC2s6rqIA9neG3Z2rmB-9" edge="1">
          <mxGeometry relative="1" as="geometry" />
        </mxCell>
        <mxCell id="TLC2s6rqIA9neG3Z2rmB-7" value="" style="edgeStyle=orthogonalEdgeStyle;rounded=0;orthogonalLoop=1;jettySize=auto;html=1;" parent="TLC2s6rqIA9neG3Z2rmB-1" source="TLC2s6rqIA9neG3Z2rmB-8" target="TLC2s6rqIA9neG3Z2rmB-12" edge="1">
          <mxGeometry relative="1" as="geometry" />
        </mxCell>
        <mxCell id="TLC2s6rqIA9neG3Z2rmB-8" value="is in process group" style="rhombus;whiteSpace=wrap;html=1;rounded=0;" parent="TLC2s6rqIA9neG3Z2rmB-1" vertex="1">
          <mxGeometry x="260" y="170" width="140" height="80" as="geometry" />
        </mxCell>
        <mxCell id="TLC2s6rqIA9neG3Z2rmB-9" value="print&lt;br&gt;Error (no such process)" style="whiteSpace=wrap;html=1;rounded=0;" parent="TLC2s6rqIA9neG3Z2rmB-1" vertex="1">
          <mxGeometry x="490" y="180" width="120" height="60" as="geometry" />
        </mxCell>
        <mxCell id="TLC2s6rqIA9neG3Z2rmB-10" value="" style="edgeStyle=orthogonalEdgeStyle;rounded=0;orthogonalLoop=1;jettySize=auto;html=1;" parent="TLC2s6rqIA9neG3Z2rmB-1" source="TLC2s6rqIA9neG3Z2rmB-12" target="TLC2s6rqIA9neG3Z2rmB-13" edge="1">
          <mxGeometry relative="1" as="geometry" />
        </mxCell>
        <mxCell id="TLC2s6rqIA9neG3Z2rmB-11" value="" style="edgeStyle=orthogonalEdgeStyle;rounded=0;orthogonalLoop=1;jettySize=auto;html=1;" parent="TLC2s6rqIA9neG3Z2rmB-1" source="TLC2s6rqIA9neG3Z2rmB-12" target="TLC2s6rqIA9neG3Z2rmB-15" edge="1">
          <mxGeometry relative="1" as="geometry" />
        </mxCell>
        <mxCell id="TLC2s6rqIA9neG3Z2rmB-12" value="is (starting | running | backoff) ?" style="rhombus;whiteSpace=wrap;html=1;rounded=0;" parent="TLC2s6rqIA9neG3Z2rmB-1" vertex="1">
          <mxGeometry x="260" y="330" width="140" height="80" as="geometry" />
        </mxCell>
        <mxCell id="TLC2s6rqIA9neG3Z2rmB-13" value="print&lt;br&gt;Error (already started)" style="whiteSpace=wrap;html=1;rounded=0;" parent="TLC2s6rqIA9neG3Z2rmB-1" vertex="1">
          <mxGeometry x="490" y="340" width="120" height="60" as="geometry" />
        </mxCell>
        <mxCell id="TLC2s6rqIA9neG3Z2rmB-14" value="" style="edgeStyle=orthogonalEdgeStyle;rounded=0;orthogonalLoop=1;jettySize=auto;html=1;" parent="TLC2s6rqIA9neG3Z2rmB-1" source="TLC2s6rqIA9neG3Z2rmB-15" target="TLC2s6rqIA9neG3Z2rmB-18" edge="1">
          <mxGeometry relative="1" as="geometry" />
        </mxCell>
        <mxCell id="F26wGz_geNIFe02WwjTd-1" style="edgeStyle=orthogonalEdgeStyle;rounded=0;orthogonalLoop=1;jettySize=auto;html=1;exitX=0.75;exitY=0;exitDx=0;exitDy=0;entryX=0;entryY=0.5;entryDx=0;entryDy=0;" edge="1" parent="TLC2s6rqIA9neG3Z2rmB-1" source="TLC2s6rqIA9neG3Z2rmB-15" target="F26wGz_geNIFe02WwjTd-0">
          <mxGeometry relative="1" as="geometry" />
        </mxCell>
        <mxCell id="TLC2s6rqIA9neG3Z2rmB-15" value="start process" style="whiteSpace=wrap;html=1;rounded=0;" parent="TLC2s6rqIA9neG3Z2rmB-1" vertex="1">
          <mxGeometry x="270" y="500" width="120" height="60" as="geometry" />
        </mxCell>
        <mxCell id="V6DCLV1avuk2r_d5EIAo-8" value="" style="edgeStyle=orthogonalEdgeStyle;rounded=0;orthogonalLoop=1;jettySize=auto;html=1;" parent="TLC2s6rqIA9neG3Z2rmB-1" source="TLC2s6rqIA9neG3Z2rmB-18" target="V6DCLV1avuk2r_d5EIAo-7" edge="1">
          <mxGeometry relative="1" as="geometry" />
        </mxCell>
        <mxCell id="ZbyEJMXCcD74PhzAG6iy-1" value="" style="edgeStyle=orthogonalEdgeStyle;rounded=0;orthogonalLoop=1;jettySize=auto;html=1;" parent="TLC2s6rqIA9neG3Z2rmB-1" source="TLC2s6rqIA9neG3Z2rmB-18" target="ZbyEJMXCcD74PhzAG6iy-0" edge="1">
          <mxGeometry relative="1" as="geometry" />
        </mxCell>
        <mxCell id="TLC2s6rqIA9neG3Z2rmB-18" value="is started ?" style="rhombus;whiteSpace=wrap;html=1;rounded=0;" parent="TLC2s6rqIA9neG3Z2rmB-1" vertex="1">
          <mxGeometry x="260" y="640" width="140" height="80" as="geometry" />
        </mxCell>
        <mxCell id="V6DCLV1avuk2r_d5EIAo-6" style="edgeStyle=orthogonalEdgeStyle;rounded=0;orthogonalLoop=1;jettySize=auto;html=1;exitX=0.5;exitY=0;exitDx=0;exitDy=0;entryX=1;entryY=0.5;entryDx=0;entryDy=0;" parent="TLC2s6rqIA9neG3Z2rmB-1" source="TLC2s6rqIA9neG3Z2rmB-20" target="TLC2s6rqIA9neG3Z2rmB-15" edge="1">
          <mxGeometry relative="1" as="geometry">
            <Array as="points">
              <mxPoint x="730" y="530" />
            </Array>
          </mxGeometry>
        </mxCell>
        <mxCell id="TLC2s6rqIA9neG3Z2rmB-20" value="startretries -= 1" style="whiteSpace=wrap;html=1;rounded=0;" parent="TLC2s6rqIA9neG3Z2rmB-1" vertex="1">
          <mxGeometry x="670" y="810" width="120" height="60" as="geometry" />
        </mxCell>
        <mxCell id="TLC2s6rqIA9neG3Z2rmB-21" value="print&lt;br&gt;foo: started" style="whiteSpace=wrap;html=1;rounded=0;" parent="TLC2s6rqIA9neG3Z2rmB-1" vertex="1">
          <mxGeometry x="270" y="970" width="120" height="60" as="geometry" />
        </mxCell>
        <mxCell id="TLC2s6rqIA9neG3Z2rmB-22" value="Starting" style="text;html=1;strokeColor=none;fillColor=none;align=center;verticalAlign=middle;whiteSpace=wrap;rounded=0;" parent="TLC2s6rqIA9neG3Z2rmB-1" vertex="1">
          <mxGeometry x="210" y="535" width="60" height="30" as="geometry" />
        </mxCell>
        <mxCell id="TLC2s6rqIA9neG3Z2rmB-23" value="Running" style="text;html=1;strokeColor=none;fillColor=none;align=center;verticalAlign=middle;whiteSpace=wrap;rounded=0;" parent="TLC2s6rqIA9neG3Z2rmB-1" vertex="1">
          <mxGeometry x="200" y="985" width="60" height="30" as="geometry" />
        </mxCell>
        <mxCell id="V6DCLV1avuk2r_d5EIAo-0" value="Y" style="text;html=1;strokeColor=none;fillColor=none;align=center;verticalAlign=middle;whiteSpace=wrap;rounded=0;" parent="TLC2s6rqIA9neG3Z2rmB-1" vertex="1">
          <mxGeometry x="380" y="340" width="60" height="30" as="geometry" />
        </mxCell>
        <mxCell id="V6DCLV1avuk2r_d5EIAo-1" value="N" style="text;html=1;strokeColor=none;fillColor=none;align=center;verticalAlign=middle;whiteSpace=wrap;rounded=0;" parent="TLC2s6rqIA9neG3Z2rmB-1" vertex="1">
          <mxGeometry x="280" y="400" width="60" height="30" as="geometry" />
        </mxCell>
        <mxCell id="V6DCLV1avuk2r_d5EIAo-2" value="N" style="text;html=1;strokeColor=none;fillColor=none;align=center;verticalAlign=middle;whiteSpace=wrap;rounded=0;" parent="TLC2s6rqIA9neG3Z2rmB-1" vertex="1">
          <mxGeometry x="380" y="180" width="60" height="30" as="geometry" />
        </mxCell>
        <mxCell id="V6DCLV1avuk2r_d5EIAo-3" value="Y" style="text;html=1;strokeColor=none;fillColor=none;align=center;verticalAlign=middle;whiteSpace=wrap;rounded=0;" parent="TLC2s6rqIA9neG3Z2rmB-1" vertex="1">
          <mxGeometry x="280" y="240" width="60" height="30" as="geometry" />
        </mxCell>
        <mxCell id="V6DCLV1avuk2r_d5EIAo-4" value="N" style="text;html=1;strokeColor=none;fillColor=none;align=center;verticalAlign=middle;whiteSpace=wrap;rounded=0;" parent="TLC2s6rqIA9neG3Z2rmB-1" vertex="1">
          <mxGeometry x="380" y="650" width="60" height="30" as="geometry" />
        </mxCell>
        <mxCell id="V6DCLV1avuk2r_d5EIAo-5" value="Y" style="text;html=1;strokeColor=none;fillColor=none;align=center;verticalAlign=middle;whiteSpace=wrap;rounded=0;" parent="TLC2s6rqIA9neG3Z2rmB-1" vertex="1">
          <mxGeometry x="280" y="710" width="60" height="30" as="geometry" />
        </mxCell>
        <mxCell id="V6DCLV1avuk2r_d5EIAo-9" style="edgeStyle=orthogonalEdgeStyle;rounded=0;orthogonalLoop=1;jettySize=auto;html=1;exitX=1;exitY=0.5;exitDx=0;exitDy=0;entryX=0;entryY=0.5;entryDx=0;entryDy=0;" parent="TLC2s6rqIA9neG3Z2rmB-1" source="V6DCLV1avuk2r_d5EIAo-7" target="TLC2s6rqIA9neG3Z2rmB-20" edge="1">
          <mxGeometry relative="1" as="geometry" />
        </mxCell>
        <mxCell id="V6DCLV1avuk2r_d5EIAo-12" value="" style="edgeStyle=orthogonalEdgeStyle;rounded=0;orthogonalLoop=1;jettySize=auto;html=1;" parent="TLC2s6rqIA9neG3Z2rmB-1" source="V6DCLV1avuk2r_d5EIAo-7" target="V6DCLV1avuk2r_d5EIAo-11" edge="1">
          <mxGeometry relative="1" as="geometry" />
        </mxCell>
        <mxCell id="V6DCLV1avuk2r_d5EIAo-7" value="startretries == 0" style="rhombus;whiteSpace=wrap;html=1;rounded=0;" parent="TLC2s6rqIA9neG3Z2rmB-1" vertex="1">
          <mxGeometry x="480" y="800" width="140" height="80" as="geometry" />
        </mxCell>
        <mxCell id="V6DCLV1avuk2r_d5EIAo-10" value="N" style="text;html=1;strokeColor=none;fillColor=none;align=center;verticalAlign=middle;whiteSpace=wrap;rounded=0;" parent="TLC2s6rqIA9neG3Z2rmB-1" vertex="1">
          <mxGeometry x="600" y="810" width="60" height="30" as="geometry" />
        </mxCell>
        <mxCell id="V6DCLV1avuk2r_d5EIAo-11" value="Error (spawn error)" style="whiteSpace=wrap;html=1;rounded=0;" parent="TLC2s6rqIA9neG3Z2rmB-1" vertex="1">
          <mxGeometry x="490" y="970" width="120" height="60" as="geometry" />
        </mxCell>
        <mxCell id="V6DCLV1avuk2r_d5EIAo-13" value="Y" style="text;html=1;strokeColor=none;fillColor=none;align=center;verticalAlign=middle;whiteSpace=wrap;rounded=0;" parent="TLC2s6rqIA9neG3Z2rmB-1" vertex="1">
          <mxGeometry x="500" y="870" width="60" height="30" as="geometry" />
        </mxCell>
        <mxCell id="V6DCLV1avuk2r_d5EIAo-14" value="Back off" style="text;html=1;strokeColor=none;fillColor=none;align=center;verticalAlign=middle;whiteSpace=wrap;rounded=0;" parent="TLC2s6rqIA9neG3Z2rmB-1" vertex="1">
          <mxGeometry x="450" y="790" width="60" height="30" as="geometry" />
        </mxCell>
        <mxCell id="V6DCLV1avuk2r_d5EIAo-15" value="Fatal" style="text;html=1;strokeColor=none;fillColor=none;align=center;verticalAlign=middle;whiteSpace=wrap;rounded=0;" parent="TLC2s6rqIA9neG3Z2rmB-1" vertex="1">
          <mxGeometry x="620" y="985" width="60" height="30" as="geometry" />
        </mxCell>
        <mxCell id="ZbyEJMXCcD74PhzAG6iy-7" style="edgeStyle=orthogonalEdgeStyle;rounded=0;orthogonalLoop=1;jettySize=auto;html=1;entryX=0.5;entryY=0;entryDx=0;entryDy=0;" parent="TLC2s6rqIA9neG3Z2rmB-1" source="ZbyEJMXCcD74PhzAG6iy-0" target="TLC2s6rqIA9neG3Z2rmB-21" edge="1">
          <mxGeometry relative="1" as="geometry" />
        </mxCell>
        <mxCell id="ZbyEJMXCcD74PhzAG6iy-8" style="edgeStyle=orthogonalEdgeStyle;rounded=0;orthogonalLoop=1;jettySize=auto;html=1;exitX=1;exitY=0.5;exitDx=0;exitDy=0;entryX=0;entryY=0.5;entryDx=0;entryDy=0;" parent="TLC2s6rqIA9neG3Z2rmB-1" source="ZbyEJMXCcD74PhzAG6iy-0" target="V6DCLV1avuk2r_d5EIAo-7" edge="1">
          <mxGeometry relative="1" as="geometry" />
        </mxCell>
        <mxCell id="ZbyEJMXCcD74PhzAG6iy-0" value="is exited in startsecs ?" style="rhombus;whiteSpace=wrap;html=1;rounded=0;" parent="TLC2s6rqIA9neG3Z2rmB-1" vertex="1">
          <mxGeometry x="260" y="800" width="140" height="80" as="geometry" />
        </mxCell>
        <mxCell id="ZbyEJMXCcD74PhzAG6iy-9" value="Y" style="text;html=1;strokeColor=none;fillColor=none;align=center;verticalAlign=middle;whiteSpace=wrap;rounded=0;" parent="TLC2s6rqIA9neG3Z2rmB-1" vertex="1">
          <mxGeometry x="380" y="810" width="60" height="30" as="geometry" />
        </mxCell>
        <mxCell id="ZbyEJMXCcD74PhzAG6iy-10" value="N" style="text;html=1;strokeColor=none;fillColor=none;align=center;verticalAlign=middle;whiteSpace=wrap;rounded=0;" parent="TLC2s6rqIA9neG3Z2rmB-1" vertex="1">
          <mxGeometry x="280" y="870" width="60" height="30" as="geometry" />
        </mxCell>
        <mxCell id="F26wGz_geNIFe02WwjTd-0" value="print&lt;br&gt;Error (no such file)" style="whiteSpace=wrap;html=1;rounded=0;" vertex="1" parent="TLC2s6rqIA9neG3Z2rmB-1">
          <mxGeometry x="490" y="430" width="120" height="60" as="geometry" />
        </mxCell>
      </root>
    </mxGraphModel>
  </diagram>
  <diagram name="update" id="5jeRhfsoRb1EFufzWbIn">
    <mxGraphModel dx="1407" dy="709" grid="1" gridSize="10" guides="1" tooltips="1" connect="1" arrows="1" fold="1" page="1" pageScale="1" pageWidth="850" pageHeight="1100" math="0" shadow="0">
      <root>
        <mxCell id="hnglYtZwu1MWGsbGkUnF-0" />
        <mxCell id="hnglYtZwu1MWGsbGkUnF-1" parent="hnglYtZwu1MWGsbGkUnF-0" />
        <mxCell id="2YXiGc5Gkja_qSpn-O-M-0" value="update" style="shape=hexagon;perimeter=hexagonPerimeter2;whiteSpace=wrap;html=1;fixedSize=1;" parent="hnglYtZwu1MWGsbGkUnF-1" vertex="1">
          <mxGeometry x="40" y="20" width="120" height="80" as="geometry" />
        </mxCell>
        <mxCell id="2YXiGc5Gkja_qSpn-O-M-1" value="" style="edgeStyle=orthogonalEdgeStyle;rounded=0;orthogonalLoop=1;jettySize=auto;html=1;" parent="hnglYtZwu1MWGsbGkUnF-1" source="2YXiGc5Gkja_qSpn-O-M-2" target="2YXiGc5Gkja_qSpn-O-M-5" edge="1">
          <mxGeometry relative="1" as="geometry" />
        </mxCell>
        <mxCell id="2YXiGc5Gkja_qSpn-O-M-2" value="on event" style="rounded=0;whiteSpace=wrap;html=1;" parent="hnglYtZwu1MWGsbGkUnF-1" vertex="1">
          <mxGeometry x="40" y="180" width="120" height="60" as="geometry" />
        </mxCell>
        <mxCell id="2YXiGc5Gkja_qSpn-O-M-3" value="" style="edgeStyle=orthogonalEdgeStyle;rounded=0;orthogonalLoop=1;jettySize=auto;html=1;" parent="hnglYtZwu1MWGsbGkUnF-1" source="2YXiGc5Gkja_qSpn-O-M-5" target="2YXiGc5Gkja_qSpn-O-M-8" edge="1">
          <mxGeometry relative="1" as="geometry" />
        </mxCell>
        <mxCell id="2YXiGc5Gkja_qSpn-O-M-4" value="" style="edgeStyle=orthogonalEdgeStyle;rounded=0;orthogonalLoop=1;jettySize=auto;html=1;" parent="hnglYtZwu1MWGsbGkUnF-1" source="2YXiGc5Gkja_qSpn-O-M-5" target="2YXiGc5Gkja_qSpn-O-M-14" edge="1">
          <mxGeometry relative="1" as="geometry" />
        </mxCell>
        <mxCell id="2YXiGc5Gkja_qSpn-O-M-5" value="for p in prev_programlist" style="rounded=0;whiteSpace=wrap;html=1;" parent="hnglYtZwu1MWGsbGkUnF-1" vertex="1">
          <mxGeometry x="240" y="180" width="120" height="60" as="geometry" />
        </mxCell>
        <mxCell id="2YXiGc5Gkja_qSpn-O-M-6" value="" style="edgeStyle=orthogonalEdgeStyle;rounded=0;orthogonalLoop=1;jettySize=auto;html=1;" parent="hnglYtZwu1MWGsbGkUnF-1" source="2YXiGc5Gkja_qSpn-O-M-8" target="2YXiGc5Gkja_qSpn-O-M-10" edge="1">
          <mxGeometry relative="1" as="geometry" />
        </mxCell>
        <mxCell id="2YXiGc5Gkja_qSpn-O-M-7" value="" style="edgeStyle=orthogonalEdgeStyle;rounded=0;orthogonalLoop=1;jettySize=auto;html=1;" parent="hnglYtZwu1MWGsbGkUnF-1" source="2YXiGc5Gkja_qSpn-O-M-8" target="2YXiGc5Gkja_qSpn-O-M-12" edge="1">
          <mxGeometry relative="1" as="geometry" />
        </mxCell>
        <mxCell id="2YXiGc5Gkja_qSpn-O-M-8" value="is in next_programlist" style="rhombus;whiteSpace=wrap;html=1;rounded=0;" parent="hnglYtZwu1MWGsbGkUnF-1" vertex="1">
          <mxGeometry x="230" y="310" width="140" height="80" as="geometry" />
        </mxCell>
        <mxCell id="2YXiGc5Gkja_qSpn-O-M-9" style="edgeStyle=orthogonalEdgeStyle;rounded=0;orthogonalLoop=1;jettySize=auto;html=1;exitX=0.5;exitY=0;exitDx=0;exitDy=0;entryX=0.25;entryY=1;entryDx=0;entryDy=0;" parent="hnglYtZwu1MWGsbGkUnF-1" source="2YXiGc5Gkja_qSpn-O-M-10" target="2YXiGc5Gkja_qSpn-O-M-5" edge="1">
          <mxGeometry relative="1" as="geometry" />
        </mxCell>
        <mxCell id="2YXiGc5Gkja_qSpn-O-M-10" value="pass" style="rounded=0;whiteSpace=wrap;html=1;" parent="hnglYtZwu1MWGsbGkUnF-1" vertex="1">
          <mxGeometry x="70" y="320" width="120" height="60" as="geometry" />
        </mxCell>
        <mxCell id="2YXiGc5Gkja_qSpn-O-M-11" style="edgeStyle=orthogonalEdgeStyle;rounded=0;orthogonalLoop=1;jettySize=auto;html=1;exitX=0;exitY=0.5;exitDx=0;exitDy=0;entryX=0.5;entryY=1;entryDx=0;entryDy=0;" parent="hnglYtZwu1MWGsbGkUnF-1" source="2YXiGc5Gkja_qSpn-O-M-12" target="2YXiGc5Gkja_qSpn-O-M-10" edge="1">
          <mxGeometry relative="1" as="geometry" />
        </mxCell>
        <mxCell id="2YXiGc5Gkja_qSpn-O-M-12" value="Remove process" style="whiteSpace=wrap;html=1;rounded=0;" parent="hnglYtZwu1MWGsbGkUnF-1" vertex="1">
          <mxGeometry x="240" y="480" width="120" height="60" as="geometry" />
        </mxCell>
        <mxCell id="2YXiGc5Gkja_qSpn-O-M-13" value="" style="edgeStyle=orthogonalEdgeStyle;rounded=0;orthogonalLoop=1;jettySize=auto;html=1;" parent="hnglYtZwu1MWGsbGkUnF-1" source="2YXiGc5Gkja_qSpn-O-M-14" target="2YXiGc5Gkja_qSpn-O-M-17" edge="1">
          <mxGeometry relative="1" as="geometry" />
        </mxCell>
        <mxCell id="2YXiGc5Gkja_qSpn-O-M-14" value="for p in next_programlist" style="whiteSpace=wrap;html=1;rounded=0;" parent="hnglYtZwu1MWGsbGkUnF-1" vertex="1">
          <mxGeometry x="440" y="180" width="120" height="60" as="geometry" />
        </mxCell>
        <mxCell id="2YXiGc5Gkja_qSpn-O-M-15" value="" style="edgeStyle=orthogonalEdgeStyle;rounded=0;orthogonalLoop=1;jettySize=auto;html=1;" parent="hnglYtZwu1MWGsbGkUnF-1" source="2YXiGc5Gkja_qSpn-O-M-17" target="2YXiGc5Gkja_qSpn-O-M-19" edge="1">
          <mxGeometry relative="1" as="geometry" />
        </mxCell>
        <mxCell id="2YXiGc5Gkja_qSpn-O-M-16" value="" style="edgeStyle=orthogonalEdgeStyle;rounded=0;orthogonalLoop=1;jettySize=auto;html=1;" parent="hnglYtZwu1MWGsbGkUnF-1" source="2YXiGc5Gkja_qSpn-O-M-17" target="2YXiGc5Gkja_qSpn-O-M-26" edge="1">
          <mxGeometry relative="1" as="geometry" />
        </mxCell>
        <mxCell id="2YXiGc5Gkja_qSpn-O-M-17" value="is in prev_programlist" style="rhombus;whiteSpace=wrap;html=1;rounded=0;" parent="hnglYtZwu1MWGsbGkUnF-1" vertex="1">
          <mxGeometry x="430" y="310" width="140" height="80" as="geometry" />
        </mxCell>
        <mxCell id="2YXiGc5Gkja_qSpn-O-M-18" value="" style="edgeStyle=orthogonalEdgeStyle;rounded=0;orthogonalLoop=1;jettySize=auto;html=1;" parent="hnglYtZwu1MWGsbGkUnF-1" source="2YXiGc5Gkja_qSpn-O-M-19" target="2YXiGc5Gkja_qSpn-O-M-33" edge="1">
          <mxGeometry relative="1" as="geometry" />
        </mxCell>
        <mxCell id="2YXiGc5Gkja_qSpn-O-M-19" value="Add process" style="whiteSpace=wrap;html=1;rounded=0;" parent="hnglYtZwu1MWGsbGkUnF-1" vertex="1">
          <mxGeometry x="440" y="480" width="120" height="60" as="geometry" />
        </mxCell>
        <mxCell id="2YXiGc5Gkja_qSpn-O-M-20" value="Y" style="text;html=1;strokeColor=none;fillColor=none;align=center;verticalAlign=middle;whiteSpace=wrap;rounded=0;" parent="hnglYtZwu1MWGsbGkUnF-1" vertex="1">
          <mxGeometry x="190" y="320" width="60" height="30" as="geometry" />
        </mxCell>
        <mxCell id="2YXiGc5Gkja_qSpn-O-M-21" value="N" style="text;html=1;strokeColor=none;fillColor=none;align=center;verticalAlign=middle;whiteSpace=wrap;rounded=0;" parent="hnglYtZwu1MWGsbGkUnF-1" vertex="1">
          <mxGeometry x="240" y="370" width="60" height="30" as="geometry" />
        </mxCell>
        <mxCell id="2YXiGc5Gkja_qSpn-O-M-22" value="N" style="text;html=1;strokeColor=none;fillColor=none;align=center;verticalAlign=middle;whiteSpace=wrap;rounded=0;" parent="hnglYtZwu1MWGsbGkUnF-1" vertex="1">
          <mxGeometry x="440" y="370" width="60" height="30" as="geometry" />
        </mxCell>
        <mxCell id="2YXiGc5Gkja_qSpn-O-M-23" value="Y" style="text;html=1;strokeColor=none;fillColor=none;align=center;verticalAlign=middle;whiteSpace=wrap;rounded=0;" parent="hnglYtZwu1MWGsbGkUnF-1" vertex="1">
          <mxGeometry x="530" y="320" width="60" height="30" as="geometry" />
        </mxCell>
        <mxCell id="2YXiGc5Gkja_qSpn-O-M-24" value="" style="edgeStyle=orthogonalEdgeStyle;rounded=0;orthogonalLoop=1;jettySize=auto;html=1;" parent="hnglYtZwu1MWGsbGkUnF-1" source="2YXiGc5Gkja_qSpn-O-M-26" target="2YXiGc5Gkja_qSpn-O-M-28" edge="1">
          <mxGeometry relative="1" as="geometry" />
        </mxCell>
        <mxCell id="2YXiGc5Gkja_qSpn-O-M-25" value="" style="edgeStyle=orthogonalEdgeStyle;rounded=0;orthogonalLoop=1;jettySize=auto;html=1;" parent="hnglYtZwu1MWGsbGkUnF-1" source="2YXiGc5Gkja_qSpn-O-M-26" target="2YXiGc5Gkja_qSpn-O-M-30" edge="1">
          <mxGeometry relative="1" as="geometry" />
        </mxCell>
        <mxCell id="2YXiGc5Gkja_qSpn-O-M-26" value="diff conf" style="rhombus;whiteSpace=wrap;html=1;rounded=0;" parent="hnglYtZwu1MWGsbGkUnF-1" vertex="1">
          <mxGeometry x="640" y="310" width="140" height="80" as="geometry" />
        </mxCell>
        <mxCell id="2YXiGc5Gkja_qSpn-O-M-27" style="edgeStyle=orthogonalEdgeStyle;rounded=0;orthogonalLoop=1;jettySize=auto;html=1;exitX=0.5;exitY=1;exitDx=0;exitDy=0;" parent="hnglYtZwu1MWGsbGkUnF-1" source="2YXiGc5Gkja_qSpn-O-M-28" edge="1">
          <mxGeometry relative="1" as="geometry">
            <mxPoint x="420" y="750" as="targetPoint" />
            <Array as="points">
              <mxPoint x="710" y="830" />
              <mxPoint x="420" y="830" />
            </Array>
          </mxGeometry>
        </mxCell>
        <mxCell id="2YXiGc5Gkja_qSpn-O-M-28" value="pass" style="whiteSpace=wrap;html=1;rounded=0;" parent="hnglYtZwu1MWGsbGkUnF-1" vertex="1">
          <mxGeometry x="650" y="480" width="120" height="60" as="geometry" />
        </mxCell>
        <mxCell id="2YXiGc5Gkja_qSpn-O-M-29" style="edgeStyle=orthogonalEdgeStyle;rounded=0;orthogonalLoop=1;jettySize=auto;html=1;exitX=0.5;exitY=1;exitDx=0;exitDy=0;entryX=0.5;entryY=0;entryDx=0;entryDy=0;" parent="hnglYtZwu1MWGsbGkUnF-1" source="2YXiGc5Gkja_qSpn-O-M-30" target="2YXiGc5Gkja_qSpn-O-M-42" edge="1">
          <mxGeometry relative="1" as="geometry" />
        </mxCell>
        <mxCell id="2YXiGc5Gkja_qSpn-O-M-30" value="Stop process" style="whiteSpace=wrap;html=1;rounded=0;" parent="hnglYtZwu1MWGsbGkUnF-1" vertex="1">
          <mxGeometry x="820" y="320" width="120" height="60" as="geometry" />
        </mxCell>
        <mxCell id="2YXiGc5Gkja_qSpn-O-M-31" value="" style="edgeStyle=orthogonalEdgeStyle;rounded=0;orthogonalLoop=1;jettySize=auto;html=1;" parent="hnglYtZwu1MWGsbGkUnF-1" source="2YXiGc5Gkja_qSpn-O-M-33" target="2YXiGc5Gkja_qSpn-O-M-35" edge="1">
          <mxGeometry relative="1" as="geometry" />
        </mxCell>
        <mxCell id="2YXiGc5Gkja_qSpn-O-M-32" value="" style="edgeStyle=orthogonalEdgeStyle;rounded=0;orthogonalLoop=1;jettySize=auto;html=1;" parent="hnglYtZwu1MWGsbGkUnF-1" source="2YXiGc5Gkja_qSpn-O-M-33" target="2YXiGc5Gkja_qSpn-O-M-37" edge="1">
          <mxGeometry relative="1" as="geometry" />
        </mxCell>
        <mxCell id="2YXiGc5Gkja_qSpn-O-M-33" value="autostart" style="rhombus;whiteSpace=wrap;html=1;rounded=0;" parent="hnglYtZwu1MWGsbGkUnF-1" vertex="1">
          <mxGeometry x="460" y="610" width="80" height="80" as="geometry" />
        </mxCell>
        <mxCell id="2YXiGc5Gkja_qSpn-O-M-34" style="edgeStyle=orthogonalEdgeStyle;rounded=0;orthogonalLoop=1;jettySize=auto;html=1;exitX=0.5;exitY=1;exitDx=0;exitDy=0;" parent="hnglYtZwu1MWGsbGkUnF-1" source="2YXiGc5Gkja_qSpn-O-M-35" edge="1">
          <mxGeometry relative="1" as="geometry">
            <mxPoint x="620" y="830" as="targetPoint" />
            <Array as="points">
              <mxPoint x="620" y="830" />
              <mxPoint x="620" y="830" />
            </Array>
          </mxGeometry>
        </mxCell>
        <mxCell id="2YXiGc5Gkja_qSpn-O-M-35" value="starting process" style="ellipse;whiteSpace=wrap;html=1;rounded=0;" parent="hnglYtZwu1MWGsbGkUnF-1" vertex="1">
          <mxGeometry x="580" y="610" width="80" height="80" as="geometry" />
        </mxCell>
        <mxCell id="2YXiGc5Gkja_qSpn-O-M-36" style="edgeStyle=orthogonalEdgeStyle;rounded=0;orthogonalLoop=1;jettySize=auto;html=1;exitX=0;exitY=0.5;exitDx=0;exitDy=0;entryX=0.25;entryY=1;entryDx=0;entryDy=0;" parent="hnglYtZwu1MWGsbGkUnF-1" source="2YXiGc5Gkja_qSpn-O-M-37" target="2YXiGc5Gkja_qSpn-O-M-14" edge="1">
          <mxGeometry relative="1" as="geometry">
            <Array as="points">
              <mxPoint x="420" y="750" />
              <mxPoint x="420" y="280" />
              <mxPoint x="470" y="280" />
            </Array>
          </mxGeometry>
        </mxCell>
        <mxCell id="2YXiGc5Gkja_qSpn-O-M-37" value="stopped process" style="ellipse;whiteSpace=wrap;html=1;rounded=0;" parent="hnglYtZwu1MWGsbGkUnF-1" vertex="1">
          <mxGeometry x="460" y="710" width="80" height="80" as="geometry" />
        </mxCell>
        <mxCell id="2YXiGc5Gkja_qSpn-O-M-38" value="Y" style="text;html=1;strokeColor=none;fillColor=none;align=center;verticalAlign=middle;whiteSpace=wrap;rounded=0;" parent="hnglYtZwu1MWGsbGkUnF-1" vertex="1">
          <mxGeometry x="740" y="310" width="60" height="30" as="geometry" />
        </mxCell>
        <mxCell id="2YXiGc5Gkja_qSpn-O-M-39" value="N" style="text;html=1;strokeColor=none;fillColor=none;align=center;verticalAlign=middle;whiteSpace=wrap;rounded=0;" parent="hnglYtZwu1MWGsbGkUnF-1" vertex="1">
          <mxGeometry x="630" y="370" width="60" height="30" as="geometry" />
        </mxCell>
        <mxCell id="2YXiGc5Gkja_qSpn-O-M-40" value="" style="edgeStyle=orthogonalEdgeStyle;rounded=0;orthogonalLoop=1;jettySize=auto;html=1;" parent="hnglYtZwu1MWGsbGkUnF-1" source="2YXiGc5Gkja_qSpn-O-M-42" target="2YXiGc5Gkja_qSpn-O-M-44" edge="1">
          <mxGeometry relative="1" as="geometry" />
        </mxCell>
        <mxCell id="2YXiGc5Gkja_qSpn-O-M-41" value="" style="edgeStyle=orthogonalEdgeStyle;rounded=0;orthogonalLoop=1;jettySize=auto;html=1;" parent="hnglYtZwu1MWGsbGkUnF-1" source="2YXiGc5Gkja_qSpn-O-M-42" target="2YXiGc5Gkja_qSpn-O-M-46" edge="1">
          <mxGeometry relative="1" as="geometry" />
        </mxCell>
        <mxCell id="2YXiGc5Gkja_qSpn-O-M-42" value="autostart" style="rhombus;whiteSpace=wrap;html=1;rounded=0;" parent="hnglYtZwu1MWGsbGkUnF-1" vertex="1">
          <mxGeometry x="820" y="470" width="80" height="80" as="geometry" />
        </mxCell>
        <mxCell id="2YXiGc5Gkja_qSpn-O-M-43" style="edgeStyle=orthogonalEdgeStyle;rounded=0;orthogonalLoop=1;jettySize=auto;html=1;exitX=0.5;exitY=1;exitDx=0;exitDy=0;" parent="hnglYtZwu1MWGsbGkUnF-1" source="2YXiGc5Gkja_qSpn-O-M-44" edge="1">
          <mxGeometry relative="1" as="geometry">
            <mxPoint x="860" y="830" as="targetPoint" />
            <Array as="points">
              <mxPoint x="980" y="830" />
            </Array>
          </mxGeometry>
        </mxCell>
        <mxCell id="2YXiGc5Gkja_qSpn-O-M-44" value="starting process" style="ellipse;whiteSpace=wrap;html=1;rounded=0;" parent="hnglYtZwu1MWGsbGkUnF-1" vertex="1">
          <mxGeometry x="940" y="470" width="80" height="80" as="geometry" />
        </mxCell>
        <mxCell id="2YXiGc5Gkja_qSpn-O-M-45" style="edgeStyle=orthogonalEdgeStyle;rounded=0;orthogonalLoop=1;jettySize=auto;html=1;exitX=0.5;exitY=1;exitDx=0;exitDy=0;" parent="hnglYtZwu1MWGsbGkUnF-1" source="2YXiGc5Gkja_qSpn-O-M-46" edge="1">
          <mxGeometry relative="1" as="geometry">
            <mxPoint x="710" y="830" as="targetPoint" />
            <Array as="points">
              <mxPoint x="860" y="830" />
            </Array>
          </mxGeometry>
        </mxCell>
        <mxCell id="2YXiGc5Gkja_qSpn-O-M-46" value="stopped process" style="ellipse;whiteSpace=wrap;html=1;rounded=0;" parent="hnglYtZwu1MWGsbGkUnF-1" vertex="1">
          <mxGeometry x="820" y="610" width="80" height="80" as="geometry" />
        </mxCell>
      </root>
    </mxGraphModel>
  </diagram>
  <diagram id="qndVDCwWk_dscLSZTR1t" name="add">
    <mxGraphModel dx="1407" dy="709" grid="1" gridSize="10" guides="1" tooltips="1" connect="1" arrows="1" fold="1" page="1" pageScale="1" pageWidth="850" pageHeight="1100" math="0" shadow="0">
      <root>
        <mxCell id="0" />
        <mxCell id="1" parent="0" />
        <mxCell id="6b2vs6AADbqR-eRNtmYI-1" value="add foo" style="shape=hexagon;perimeter=hexagonPerimeter2;whiteSpace=wrap;html=1;fixedSize=1;" parent="1" vertex="1">
          <mxGeometry x="40" y="20" width="120" height="80" as="geometry" />
        </mxCell>
        <mxCell id="6b2vs6AADbqR-eRNtmYI-2" value="" style="edgeStyle=orthogonalEdgeStyle;rounded=0;orthogonalLoop=1;jettySize=auto;html=1;" parent="1" source="6b2vs6AADbqR-eRNtmYI-3" target="6b2vs6AADbqR-eRNtmYI-6" edge="1">
          <mxGeometry relative="1" as="geometry" />
        </mxCell>
        <mxCell id="6b2vs6AADbqR-eRNtmYI-3" value="on event" style="rounded=0;whiteSpace=wrap;html=1;" parent="1" vertex="1">
          <mxGeometry x="40" y="180" width="120" height="60" as="geometry" />
        </mxCell>
        <mxCell id="6b2vs6AADbqR-eRNtmYI-4" value="" style="edgeStyle=orthogonalEdgeStyle;rounded=0;orthogonalLoop=1;jettySize=auto;html=1;" parent="1" source="6b2vs6AADbqR-eRNtmYI-6" target="6b2vs6AADbqR-eRNtmYI-7" edge="1">
          <mxGeometry relative="1" as="geometry" />
        </mxCell>
        <mxCell id="6b2vs6AADbqR-eRNtmYI-5" value="" style="edgeStyle=orthogonalEdgeStyle;rounded=0;orthogonalLoop=1;jettySize=auto;html=1;" parent="1" source="6b2vs6AADbqR-eRNtmYI-6" target="6b2vs6AADbqR-eRNtmYI-10" edge="1">
          <mxGeometry relative="1" as="geometry" />
        </mxCell>
        <mxCell id="6b2vs6AADbqR-eRNtmYI-6" value="is in avail" style="rhombus;whiteSpace=wrap;html=1;rounded=0;" parent="1" vertex="1">
          <mxGeometry x="260" y="170" width="140" height="80" as="geometry" />
        </mxCell>
        <mxCell id="6b2vs6AADbqR-eRNtmYI-7" value="print&lt;br&gt;&lt;div&gt;ERROR: no such process/group: foo&lt;/div&gt;" style="whiteSpace=wrap;html=1;rounded=0;" parent="1" vertex="1">
          <mxGeometry x="490" y="180" width="120" height="60" as="geometry" />
        </mxCell>
        <mxCell id="6b2vs6AADbqR-eRNtmYI-8" value="" style="edgeStyle=orthogonalEdgeStyle;rounded=0;orthogonalLoop=1;jettySize=auto;html=1;" parent="1" source="6b2vs6AADbqR-eRNtmYI-10" target="6b2vs6AADbqR-eRNtmYI-11" edge="1">
          <mxGeometry relative="1" as="geometry" />
        </mxCell>
        <mxCell id="YDtwBGdw6p0RFsBDaflN-2" style="edgeStyle=orthogonalEdgeStyle;rounded=0;orthogonalLoop=1;jettySize=auto;html=1;exitX=0.5;exitY=1;exitDx=0;exitDy=0;entryX=0.5;entryY=0;entryDx=0;entryDy=0;" parent="1" source="6b2vs6AADbqR-eRNtmYI-10" target="1h2JHcGLR6Hcb7_Oel5L-8" edge="1">
          <mxGeometry relative="1" as="geometry" />
        </mxCell>
        <mxCell id="6b2vs6AADbqR-eRNtmYI-10" value="is in process group" style="rhombus;whiteSpace=wrap;html=1;rounded=0;" parent="1" vertex="1">
          <mxGeometry x="260" y="330" width="140" height="80" as="geometry" />
        </mxCell>
        <mxCell id="6b2vs6AADbqR-eRNtmYI-11" value="print&lt;br&gt;&lt;div&gt;ERROR: process/ group already active&lt;/div&gt;" style="whiteSpace=wrap;html=1;rounded=0;" parent="1" vertex="1">
          <mxGeometry x="490" y="340" width="120" height="60" as="geometry" />
        </mxCell>
        <mxCell id="6b2vs6AADbqR-eRNtmYI-21" value="Y" style="text;html=1;strokeColor=none;fillColor=none;align=center;verticalAlign=middle;whiteSpace=wrap;rounded=0;" parent="1" vertex="1">
          <mxGeometry x="380" y="340" width="60" height="30" as="geometry" />
        </mxCell>
        <mxCell id="6b2vs6AADbqR-eRNtmYI-22" value="N" style="text;html=1;strokeColor=none;fillColor=none;align=center;verticalAlign=middle;whiteSpace=wrap;rounded=0;" parent="1" vertex="1">
          <mxGeometry x="240" y="390" width="60" height="30" as="geometry" />
        </mxCell>
        <mxCell id="6b2vs6AADbqR-eRNtmYI-23" value="N" style="text;html=1;strokeColor=none;fillColor=none;align=center;verticalAlign=middle;whiteSpace=wrap;rounded=0;" parent="1" vertex="1">
          <mxGeometry x="380" y="180" width="60" height="30" as="geometry" />
        </mxCell>
        <mxCell id="6b2vs6AADbqR-eRNtmYI-24" value="Y" style="text;html=1;strokeColor=none;fillColor=none;align=center;verticalAlign=middle;whiteSpace=wrap;rounded=0;" parent="1" vertex="1">
          <mxGeometry x="280" y="240" width="60" height="30" as="geometry" />
        </mxCell>
        <mxCell id="YDtwBGdw6p0RFsBDaflN-5" value="" style="edgeStyle=orthogonalEdgeStyle;rounded=0;orthogonalLoop=1;jettySize=auto;html=1;" parent="1" source="1h2JHcGLR6Hcb7_Oel5L-3" target="YDtwBGdw6p0RFsBDaflN-4" edge="1">
          <mxGeometry relative="1" as="geometry" />
        </mxCell>
        <mxCell id="72J6ElbAqTFX3KXbAgry-2" value="" style="edgeStyle=orthogonalEdgeStyle;rounded=0;orthogonalLoop=1;jettySize=auto;html=1;" parent="1" source="1h2JHcGLR6Hcb7_Oel5L-3" target="72J6ElbAqTFX3KXbAgry-1" edge="1">
          <mxGeometry relative="1" as="geometry" />
        </mxCell>
        <mxCell id="1h2JHcGLR6Hcb7_Oel5L-3" value="autostart ?" style="rhombus;whiteSpace=wrap;html=1;rounded=0;" parent="1" vertex="1">
          <mxGeometry x="260" y="600" width="140" height="80" as="geometry" />
        </mxCell>
        <mxCell id="YDtwBGdw6p0RFsBDaflN-3" style="edgeStyle=orthogonalEdgeStyle;rounded=0;orthogonalLoop=1;jettySize=auto;html=1;exitX=0.5;exitY=1;exitDx=0;exitDy=0;entryX=0.5;entryY=0;entryDx=0;entryDy=0;" parent="1" source="1h2JHcGLR6Hcb7_Oel5L-8" target="1h2JHcGLR6Hcb7_Oel5L-3" edge="1">
          <mxGeometry relative="1" as="geometry" />
        </mxCell>
        <mxCell id="1h2JHcGLR6Hcb7_Oel5L-8" value="&lt;div&gt;&lt;span style=&quot;background-color: initial;&quot;&gt;print&lt;/span&gt;&lt;/div&gt;&lt;div&gt;&lt;span style=&quot;background-color: initial;&quot;&gt;foo: added process group&lt;/span&gt;&lt;br&gt;&lt;/div&gt;" style="whiteSpace=wrap;html=1;rounded=0;" parent="1" vertex="1">
          <mxGeometry x="270" y="480" width="120" height="60" as="geometry" />
        </mxCell>
        <mxCell id="YDtwBGdw6p0RFsBDaflN-4" value="stopped process" style="ellipse;whiteSpace=wrap;html=1;rounded=0;" parent="1" vertex="1">
          <mxGeometry x="290" y="760" width="80" height="80" as="geometry" />
        </mxCell>
        <mxCell id="72J6ElbAqTFX3KXbAgry-1" value="starting process" style="ellipse;whiteSpace=wrap;html=1;rounded=0;" parent="1" vertex="1">
          <mxGeometry x="510" y="600" width="80" height="80" as="geometry" />
        </mxCell>
        <mxCell id="72J6ElbAqTFX3KXbAgry-3" value="Y" style="text;html=1;strokeColor=none;fillColor=none;align=center;verticalAlign=middle;whiteSpace=wrap;rounded=0;" parent="1" vertex="1">
          <mxGeometry x="380" y="610" width="60" height="30" as="geometry" />
        </mxCell>
        <mxCell id="72J6ElbAqTFX3KXbAgry-4" value="N" style="text;html=1;strokeColor=none;fillColor=none;align=center;verticalAlign=middle;whiteSpace=wrap;rounded=0;" parent="1" vertex="1">
          <mxGeometry x="250" y="670" width="60" height="30" as="geometry" />
        </mxCell>
      </root>
    </mxGraphModel>
  </diagram>
  <diagram name="remove" id="LtrvKFJwtz5WvwYzkCj8">
    <mxGraphModel dx="1802" dy="890" grid="1" gridSize="10" guides="1" tooltips="1" connect="1" arrows="1" fold="1" page="1" pageScale="1" pageWidth="850" pageHeight="1100" math="0" shadow="0">
      <root>
        <mxCell id="qTkMKJ6n8T5Sv2HNrvro-0" />
        <mxCell id="qTkMKJ6n8T5Sv2HNrvro-1" parent="qTkMKJ6n8T5Sv2HNrvro-0" />
        <mxCell id="qTkMKJ6n8T5Sv2HNrvro-2" value="remove foo" style="shape=hexagon;perimeter=hexagonPerimeter2;whiteSpace=wrap;html=1;fixedSize=1;" parent="qTkMKJ6n8T5Sv2HNrvro-1" vertex="1">
          <mxGeometry x="40" y="20" width="120" height="80" as="geometry" />
        </mxCell>
        <mxCell id="qTkMKJ6n8T5Sv2HNrvro-3" value="" style="edgeStyle=orthogonalEdgeStyle;rounded=0;orthogonalLoop=1;jettySize=auto;html=1;" parent="qTkMKJ6n8T5Sv2HNrvro-1" source="qTkMKJ6n8T5Sv2HNrvro-4" target="qTkMKJ6n8T5Sv2HNrvro-7" edge="1">
          <mxGeometry relative="1" as="geometry" />
        </mxCell>
        <mxCell id="qTkMKJ6n8T5Sv2HNrvro-4" value="on event" style="rounded=0;whiteSpace=wrap;html=1;" parent="qTkMKJ6n8T5Sv2HNrvro-1" vertex="1">
          <mxGeometry x="40" y="180" width="120" height="60" as="geometry" />
        </mxCell>
        <mxCell id="qTkMKJ6n8T5Sv2HNrvro-5" value="" style="edgeStyle=orthogonalEdgeStyle;rounded=0;orthogonalLoop=1;jettySize=auto;html=1;" parent="qTkMKJ6n8T5Sv2HNrvro-1" source="qTkMKJ6n8T5Sv2HNrvro-7" target="qTkMKJ6n8T5Sv2HNrvro-8" edge="1">
          <mxGeometry relative="1" as="geometry" />
        </mxCell>
        <mxCell id="qTkMKJ6n8T5Sv2HNrvro-6" value="" style="edgeStyle=orthogonalEdgeStyle;rounded=0;orthogonalLoop=1;jettySize=auto;html=1;" parent="qTkMKJ6n8T5Sv2HNrvro-1" source="qTkMKJ6n8T5Sv2HNrvro-7" target="qTkMKJ6n8T5Sv2HNrvro-11" edge="1">
          <mxGeometry relative="1" as="geometry" />
        </mxCell>
        <mxCell id="qTkMKJ6n8T5Sv2HNrvro-7" value="is in process group ?" style="rhombus;whiteSpace=wrap;html=1;rounded=0;" parent="qTkMKJ6n8T5Sv2HNrvro-1" vertex="1">
          <mxGeometry x="260" y="170" width="140" height="80" as="geometry" />
        </mxCell>
        <mxCell id="qTkMKJ6n8T5Sv2HNrvro-8" value="print&lt;br&gt;&lt;div&gt;ERROR: no such process/group: foo&lt;/div&gt;" style="whiteSpace=wrap;html=1;rounded=0;" parent="qTkMKJ6n8T5Sv2HNrvro-1" vertex="1">
          <mxGeometry x="490" y="180" width="120" height="60" as="geometry" />
        </mxCell>
        <mxCell id="qTkMKJ6n8T5Sv2HNrvro-9" value="" style="edgeStyle=orthogonalEdgeStyle;rounded=0;orthogonalLoop=1;jettySize=auto;html=1;" parent="qTkMKJ6n8T5Sv2HNrvro-1" source="qTkMKJ6n8T5Sv2HNrvro-11" target="qTkMKJ6n8T5Sv2HNrvro-12" edge="1">
          <mxGeometry relative="1" as="geometry" />
        </mxCell>
        <mxCell id="qTkMKJ6n8T5Sv2HNrvro-10" style="edgeStyle=orthogonalEdgeStyle;rounded=0;orthogonalLoop=1;jettySize=auto;html=1;exitX=0.5;exitY=1;exitDx=0;exitDy=0;entryX=0.5;entryY=0;entryDx=0;entryDy=0;" parent="qTkMKJ6n8T5Sv2HNrvro-1" source="qTkMKJ6n8T5Sv2HNrvro-11" target="qTkMKJ6n8T5Sv2HNrvro-21" edge="1">
          <mxGeometry relative="1" as="geometry" />
        </mxCell>
        <mxCell id="qTkMKJ6n8T5Sv2HNrvro-11" value="is running ?" style="rhombus;whiteSpace=wrap;html=1;rounded=0;" parent="qTkMKJ6n8T5Sv2HNrvro-1" vertex="1">
          <mxGeometry x="260" y="330" width="140" height="80" as="geometry" />
        </mxCell>
        <mxCell id="qTkMKJ6n8T5Sv2HNrvro-12" value="print&lt;br&gt;&lt;div&gt;&lt;div&gt;&lt;span style=&quot;background-color: initial;&quot;&gt;ERROR: process/group still running: foo&lt;/span&gt;&lt;br&gt;&lt;/div&gt;&lt;/div&gt;" style="whiteSpace=wrap;html=1;rounded=0;" parent="qTkMKJ6n8T5Sv2HNrvro-1" vertex="1">
          <mxGeometry x="490" y="340" width="120" height="60" as="geometry" />
        </mxCell>
        <mxCell id="qTkMKJ6n8T5Sv2HNrvro-13" value="Y" style="text;html=1;strokeColor=none;fillColor=none;align=center;verticalAlign=middle;whiteSpace=wrap;rounded=0;" parent="qTkMKJ6n8T5Sv2HNrvro-1" vertex="1">
          <mxGeometry x="380" y="340" width="60" height="30" as="geometry" />
        </mxCell>
        <mxCell id="qTkMKJ6n8T5Sv2HNrvro-14" value="N" style="text;html=1;strokeColor=none;fillColor=none;align=center;verticalAlign=middle;whiteSpace=wrap;rounded=0;" parent="qTkMKJ6n8T5Sv2HNrvro-1" vertex="1">
          <mxGeometry x="260" y="390" width="60" height="30" as="geometry" />
        </mxCell>
        <mxCell id="qTkMKJ6n8T5Sv2HNrvro-15" value="N" style="text;html=1;strokeColor=none;fillColor=none;align=center;verticalAlign=middle;whiteSpace=wrap;rounded=0;" parent="qTkMKJ6n8T5Sv2HNrvro-1" vertex="1">
          <mxGeometry x="380" y="180" width="60" height="30" as="geometry" />
        </mxCell>
        <mxCell id="qTkMKJ6n8T5Sv2HNrvro-16" value="Y" style="text;html=1;strokeColor=none;fillColor=none;align=center;verticalAlign=middle;whiteSpace=wrap;rounded=0;" parent="qTkMKJ6n8T5Sv2HNrvro-1" vertex="1">
          <mxGeometry x="280" y="240" width="60" height="30" as="geometry" />
        </mxCell>
        <mxCell id="qTkMKJ6n8T5Sv2HNrvro-21" value="&lt;div&gt;&lt;span style=&quot;background-color: initial;&quot;&gt;print&lt;/span&gt;&lt;/div&gt;&lt;div&gt;&lt;span style=&quot;background-color: initial;&quot;&gt;foo: removed process group&lt;/span&gt;&lt;/div&gt;" style="whiteSpace=wrap;html=1;rounded=0;" parent="qTkMKJ6n8T5Sv2HNrvro-1" vertex="1">
          <mxGeometry x="270" y="480" width="120" height="60" as="geometry" />
        </mxCell>
      </root>
    </mxGraphModel>
  </diagram>
  <diagram id="SU8fdoy5BFS_fjdq7Px-" name="process state">
    <mxGraphModel dx="1407" dy="709" grid="1" gridSize="10" guides="1" tooltips="1" connect="1" arrows="1" fold="1" page="1" pageScale="1" pageWidth="850" pageHeight="1100" math="0" shadow="0">
      <root>
        <mxCell id="0" />
        <mxCell id="1" parent="0" />
        <mxCell id="RhNargzGGPUjUQuBwjfR-18" style="edgeStyle=orthogonalEdgeStyle;rounded=0;orthogonalLoop=1;jettySize=auto;html=1;exitX=0;exitY=0.5;exitDx=0;exitDy=0;entryX=0.583;entryY=1;entryDx=0;entryDy=0;entryPerimeter=0;" edge="1" parent="1" source="RhNargzGGPUjUQuBwjfR-3" target="RhNargzGGPUjUQuBwjfR-5">
          <mxGeometry relative="1" as="geometry" />
        </mxCell>
        <mxCell id="RhNargzGGPUjUQuBwjfR-22" style="edgeStyle=orthogonalEdgeStyle;rounded=0;orthogonalLoop=1;jettySize=auto;html=1;exitX=0;exitY=1;exitDx=0;exitDy=0;entryX=0.5;entryY=0;entryDx=0;entryDy=0;" edge="1" parent="1" source="RhNargzGGPUjUQuBwjfR-3" target="RhNargzGGPUjUQuBwjfR-9">
          <mxGeometry relative="1" as="geometry" />
        </mxCell>
        <mxCell id="RhNargzGGPUjUQuBwjfR-3" value="starting" style="ellipse;whiteSpace=wrap;html=1;" vertex="1" parent="1">
          <mxGeometry x="350" y="200" width="120" height="80" as="geometry" />
        </mxCell>
        <mxCell id="RhNargzGGPUjUQuBwjfR-24" style="edgeStyle=orthogonalEdgeStyle;rounded=0;orthogonalLoop=1;jettySize=auto;html=1;exitX=0.5;exitY=1;exitDx=0;exitDy=0;entryX=0.5;entryY=0;entryDx=0;entryDy=0;" edge="1" parent="1" source="RhNargzGGPUjUQuBwjfR-4" target="RhNargzGGPUjUQuBwjfR-3">
          <mxGeometry relative="1" as="geometry" />
        </mxCell>
        <mxCell id="RhNargzGGPUjUQuBwjfR-4" value="stopped" style="ellipse;whiteSpace=wrap;html=1;" vertex="1" parent="1">
          <mxGeometry x="330" y="30" width="120" height="80" as="geometry" />
        </mxCell>
        <mxCell id="RhNargzGGPUjUQuBwjfR-23" style="edgeStyle=orthogonalEdgeStyle;rounded=0;orthogonalLoop=1;jettySize=auto;html=1;exitX=0.5;exitY=0;exitDx=0;exitDy=0;entryX=0.007;entryY=0.454;entryDx=0;entryDy=0;entryPerimeter=0;" edge="1" parent="1" source="RhNargzGGPUjUQuBwjfR-5" target="RhNargzGGPUjUQuBwjfR-4">
          <mxGeometry relative="1" as="geometry" />
        </mxCell>
        <mxCell id="RhNargzGGPUjUQuBwjfR-5" value="stopping" style="ellipse;whiteSpace=wrap;html=1;" vertex="1" parent="1">
          <mxGeometry x="120" y="120" width="120" height="80" as="geometry" />
        </mxCell>
        <mxCell id="RhNargzGGPUjUQuBwjfR-14" style="edgeStyle=orthogonalEdgeStyle;rounded=0;orthogonalLoop=1;jettySize=auto;html=1;exitX=1;exitY=0;exitDx=0;exitDy=0;entryX=0.438;entryY=1;entryDx=0;entryDy=0;entryPerimeter=0;" edge="1" parent="1" source="RhNargzGGPUjUQuBwjfR-6" target="RhNargzGGPUjUQuBwjfR-3">
          <mxGeometry relative="1" as="geometry" />
        </mxCell>
        <mxCell id="RhNargzGGPUjUQuBwjfR-6" value="exited" style="ellipse;whiteSpace=wrap;html=1;" vertex="1" parent="1">
          <mxGeometry x="300" y="410" width="120" height="80" as="geometry" />
        </mxCell>
        <mxCell id="RhNargzGGPUjUQuBwjfR-12" style="edgeStyle=orthogonalEdgeStyle;rounded=0;orthogonalLoop=1;jettySize=auto;html=1;entryX=1;entryY=0;entryDx=0;entryDy=0;" edge="1" parent="1" source="RhNargzGGPUjUQuBwjfR-8" target="RhNargzGGPUjUQuBwjfR-10">
          <mxGeometry relative="1" as="geometry" />
        </mxCell>
        <mxCell id="RhNargzGGPUjUQuBwjfR-8" value="backoff" style="ellipse;whiteSpace=wrap;html=1;" vertex="1" parent="1">
          <mxGeometry x="590" y="200" width="120" height="80" as="geometry" />
        </mxCell>
        <mxCell id="RhNargzGGPUjUQuBwjfR-20" style="edgeStyle=orthogonalEdgeStyle;rounded=0;orthogonalLoop=1;jettySize=auto;html=1;exitX=0.5;exitY=1;exitDx=0;exitDy=0;entryX=-0.017;entryY=0.549;entryDx=0;entryDy=0;entryPerimeter=0;" edge="1" parent="1" source="RhNargzGGPUjUQuBwjfR-9" target="RhNargzGGPUjUQuBwjfR-6">
          <mxGeometry relative="1" as="geometry">
            <Array as="points">
              <mxPoint x="210" y="450" />
              <mxPoint x="298" y="450" />
            </Array>
          </mxGeometry>
        </mxCell>
        <mxCell id="RhNargzGGPUjUQuBwjfR-21" style="edgeStyle=orthogonalEdgeStyle;rounded=0;orthogonalLoop=1;jettySize=auto;html=1;exitX=0;exitY=0.5;exitDx=0;exitDy=0;entryX=0;entryY=1;entryDx=0;entryDy=0;" edge="1" parent="1" source="RhNargzGGPUjUQuBwjfR-9" target="RhNargzGGPUjUQuBwjfR-5">
          <mxGeometry x="0.0969" y="20" relative="1" as="geometry">
            <Array as="points">
              <mxPoint x="130" y="340" />
              <mxPoint x="130" y="250" />
              <mxPoint x="138" y="250" />
            </Array>
            <mxPoint as="offset" />
          </mxGeometry>
        </mxCell>
        <mxCell id="RhNargzGGPUjUQuBwjfR-9" value="running" style="ellipse;whiteSpace=wrap;html=1;" vertex="1" parent="1">
          <mxGeometry x="150" y="300" width="120" height="80" as="geometry" />
        </mxCell>
        <mxCell id="RhNargzGGPUjUQuBwjfR-15" style="edgeStyle=orthogonalEdgeStyle;rounded=0;orthogonalLoop=1;jettySize=auto;html=1;exitX=0;exitY=0;exitDx=0;exitDy=0;" edge="1" parent="1" source="RhNargzGGPUjUQuBwjfR-10">
          <mxGeometry relative="1" as="geometry">
            <mxPoint x="400" y="350" as="targetPoint" />
            <Array as="points">
              <mxPoint x="528" y="350" />
            </Array>
          </mxGeometry>
        </mxCell>
        <mxCell id="RhNargzGGPUjUQuBwjfR-10" value="fatal" style="ellipse;whiteSpace=wrap;html=1;" vertex="1" parent="1">
          <mxGeometry x="510" y="380" width="120" height="80" as="geometry" />
        </mxCell>
        <mxCell id="RhNargzGGPUjUQuBwjfR-11" value="" style="endArrow=classic;startArrow=classic;html=1;rounded=0;entryX=0;entryY=0.5;entryDx=0;entryDy=0;" edge="1" parent="1" source="RhNargzGGPUjUQuBwjfR-3" target="RhNargzGGPUjUQuBwjfR-8">
          <mxGeometry width="50" height="50" relative="1" as="geometry">
            <mxPoint x="510" y="270" as="sourcePoint" />
            <mxPoint x="560" y="220" as="targetPoint" />
          </mxGeometry>
        </mxCell>
      </root>
    </mxGraphModel>
  </diagram>
</mxfile>
